<?xml version="1.0" standalone="no"?><!DOCTYPE svg PUBLIC "-//W3C//DTD SVG 1.1//EN" "http://www.w3.org/Graphics/SVG/1.1/DTD/svg11.dtd"><svg t="1621306841294" class="icon" viewBox="0 0 1024 1024" version="1.1" xmlns="http://www.w3.org/2000/svg" p-id="984" xmlns:xlink="http://www.w3.org/1999/xlink" width="200" height="200"><defs><style type="text/css"></style></defs><path d="M305.237333 498.048a32 32 0 0 1 4.352 63.701333l-4.352 0.298667H298.666667a53.333333 53.333333 0 0 0-53.077334 47.872l-0.256 5.461333v85.333334c0 27.605333 20.992 50.346667 47.872 53.077333l5.461334 0.256h426.666666a53.333333 53.333333 0 0 0 53.077334-47.872l0.256-5.461333v-85.333334a53.333333 53.333333 0 0 0-47.872-53.034666L725.333333 562.048h-6.570666a32 32 0 0 1-4.352-63.701333l4.352-0.298667H725.333333a117.333333 117.333333 0 0 1 117.12 110.208l0.213334 7.125333v85.333334a117.333333 117.333333 0 0 1-110.165334 117.12l-7.168 0.213333H298.666667a117.333333 117.333333 0 0 1-117.12-110.165333l-0.213334-7.168v-85.333334a117.333333 117.333333 0 0 1 110.165334-117.12L298.666667 498.048h6.570666z" fill="#FFFFFF" p-id="985"></path><path d="M515.925333 603.648a32 32 0 0 0 31.701334-27.648l0.298666-4.352V358.912l54.186667 54.101333a32 32 0 0 0 41.984 2.858667l3.242667-2.858667a32 32 0 0 0 2.901333-41.984l-2.901333-3.242666-105.557334-105.6a32 32 0 0 0-41.984-2.858667l-3.285333 2.858667L390.912 367.786667a32 32 0 0 0 41.984 48.085333l3.285333-2.858667 47.701334-47.658666 0.042666 206.293333c0 17.664 14.336 32 32 32z" fill="#4C93FF" p-id="986"></path></svg>