<?xml version="1.0" standalone="no"?><!DOCTYPE svg PUBLIC "-//W3C//DTD SVG 1.1//EN" "http://www.w3.org/Graphics/SVG/1.1/DTD/svg11.dtd"><svg t="1632903605005" class="icon" viewBox="0 0 1024 1024" version="1.1" xmlns="http://www.w3.org/2000/svg" p-id="1200" xmlns:xlink="http://www.w3.org/1999/xlink" width="200" height="200"><defs><style type="text/css"></style></defs><path d="M512 181.333333a330.666667 330.666667 0 1 1 0 661.333334 330.666667 330.666667 0 0 1 0-661.333334z m95.232 362.709334H416.768c6.570667 133.546667 52.949333 234.624 95.232 234.624 42.282667 0 88.661333-101.077333 95.232-234.624z m-254.549333 0H247.253333a266.922667 266.922667 0 0 0 153.301334 210.304c-27.306667-53.76-44.373333-127.914667-47.872-210.346667z m424.106666 0h-105.472c-3.541333 82.389333-20.608 156.544-47.872 210.346666a266.965333 266.965333 0 0 0 153.301334-210.346666zM400.512 269.653333l-6.997333 3.370667a266.88 266.88 0 0 0-146.346667 207.018667h105.472c3.498667-82.474667 20.565333-156.586667 47.872-210.389334zM512 245.333333l-3.84 0.256c-41.173333 5.845333-85.034667 104.832-91.392 234.410667h190.464c-6.528-133.546667-52.906667-234.666667-95.232-234.666667z m111.445333 24.32l0.597334 1.152c26.922667 53.717333 43.776 127.36 47.274666 209.194667h105.472a266.922667 266.922667 0 0 0-153.344-210.346667z" fill="#FFFFFF" p-id="1201"></path></svg>