<?xml version="1.0" standalone="no"?><!DOCTYPE svg PUBLIC "-//W3C//DTD SVG 1.1//EN" "http://www.w3.org/Graphics/SVG/1.1/DTD/svg11.dtd"><svg t="1621259432781" class="icon" viewBox="0 0 1987 1024" version="1.1" xmlns="http://www.w3.org/2000/svg" p-id="984" xmlns:xlink="http://www.w3.org/1999/xlink" width="388.0859375" height="200"><defs><style type="text/css"></style></defs><path d="M1457.573647 363.369412c4.517647 0.752941 40.026353-7.168 41.532235-4.517647 2.258824 3.373176 18.100706 117.368471 13.974589 118.121411-4.156235 0.783059-33.611294 7.559529-33.611295 7.55953-2.258824-15.480471-21.504-111.344941-21.895529-121.163294m56.621177-10.962824l15.48047 122.699294a1792.813176 1792.813176 0 0 0 43.038118-3.011764c-4.517647-46.441412-12.468706-119.687529-12.468706-119.68753-15.088941-3.011765-30.930824-3.011765-46.049882 0m-30.569412 170.255059s69.842824-17.739294 95.111529-9.035294c12.860235 46.411294 36.261647 306.898824 38.520471 317.44-15.841882 1.897412-67.945412 6.445176-72.101647 7.559529-3.403294-19.636706-61.530353-303.495529-61.530353-315.934117m258.590117-156.310589c4.156235 1.144471 41.140706-3.764706 41.532236-1.14447 0.752941 9.065412 4.517647 118.543059 0.361411 118.934588l-33.581176 3.011765c-0.783059-15.088941-9.065412-110.622118-8.312471-120.801883m56.982589-3.011764l3.011764 121.163294c7.951059 0 39.664941 1.897412 43.068236 1.505882-0.752941-46.411294 0-119.657412 0-119.657412a208.564706 208.564706 0 0 0-46.08-3.011764m-48.670118 162.695529s71.318588-9.426824 95.472941 1.897412c5.300706 54.362353 4.547765 307.651765 5.300706 318.223059-16.233412 0-67.945412 0.752941-72.101647 1.505882-0.752941-19.636706-29.816471-309.157647-28.672-321.65647M1584.790588 214.648471c41.140706 209.92 72.493176 568.530824 73.60753 591.540705 0 0 32.466824 0.752941 69.089882 3.011765-21.504-226.093176-47.947294-587.384471-47.585882-599.070117-9.035294-10.209882-95.111529 4.517647-95.11153 4.517647M1494.196706 711.077647c-7.920941-58.910118-218.563765-125.711059-337.106824-104.207059 0 0-14.727529-129.867294-20.389647-255.548235-4.909176-107.971765-0.752941-212.931765 0.39153-230.279529-7.951059-5.662118-93.244235 35.087059-139.324236 52.103529 0 0 55.115294 233.291294 95.141647 717.221647 0 0 63.789176 6.806588 173.266824-14.336 109.477647-21.142588 238.953412-87.190588 227.990588-164.954353m-257.415529 106.074353l-18.522353-133.270588c4.517647-2.258824 118.181647 40.026353 130.258823 47.585882-1.897412 8.282353-111.736471 85.684706-111.73647 85.684706M580.276706 363.369412c4.517647 0.752941 39.996235-7.168 41.502118-4.517647 2.288941 3.373176 18.130824 117.368471 13.974588 118.121411-4.156235 0.783059-33.581176 7.559529-33.581177 7.55953-2.288941-15.480471-21.534118-111.344941-21.895529-121.163294m56.621176-10.962824l15.480471 122.699294a1792.813176 1792.813176 0 0 0 43.038118-3.011764c-4.909176-46.441412-12.468706-119.687529-12.468706-119.68753-15.088941-3.011765-30.960941-3.011765-46.08 0m-30.569412 170.255059s69.872941-17.739294 95.171765-9.035294c12.8 46.411294 36.201412 306.898824 38.490353 317.44-15.872 1.897412-67.975529 6.445176-72.101647 7.559529-3.403294-19.636706-61.560471-303.495529-61.560471-315.934117m258.590118-156.310589c4.156235 1.144471 41.170824-3.764706 41.562353-1.14447 0.722824 9.065412 4.517647 118.543059 0.361411 118.934588l-33.611294 3.011765c-0.752941-15.088941-8.673882-110.622118-8.31247-120.801883m57.012705-3.011764l3.011765 121.163294c7.951059 0 39.634824 1.897412 43.068235 1.505882-0.783059-46.411294 0-119.657412 0-119.657412a234.285176 234.285176 0 0 0-46.08-3.011764m-48.700235 162.695529s71.378824-9.426824 95.503059 1.897412c5.300706 54.362353 4.517647 307.651765 5.300706 318.223059-16.263529 0-67.945412 0.752941-72.101647 1.505882-0.391529-19.636706-29.816471-309.157647-28.702118-321.65647m-165.707294-311.416471c41.140706 209.92 72.463059 568.530824 73.607529 591.540706 0 0 32.466824 0.752941 69.089883 3.011765-21.534118-226.093176-47.947294-587.384471-47.585883-599.461648-9.035294-9.818353-95.111529 4.909176-95.111529 4.909177M616.869647 711.077647c-7.920941-58.910118-218.563765-125.711059-337.106823-104.207059 0 0-14.697412-129.867294-20.35953-255.548235-4.909176-107.971765-0.752941-212.931765 0.361412-230.279529C251.843765 115.712 166.550588 156.099765 120.470588 173.116235c0 0 55.115294 233.291294 95.141647 717.221647 0 0 63.789176 6.806588 173.266824-14.336 109.477647-21.142588 238.953412-87.190588 227.990588-164.954353m-257.445647 106.074353l-18.492235-133.270588c4.517647-2.258824 118.151529 40.026353 130.228706 47.585882-1.867294 8.282353-111.736471 85.684706-111.736471 85.684706" fill="#FFFFFF" p-id="985"></path></svg>